<svg id="레이어_1" data-name="레이어 1" xmlns="http://www.w3.org/2000/svg" viewBox="0 0 801.5 225.47"><defs><style>.cls-1{fill:#9fa0a0;stroke:#9fa0a0;stroke-width:2px;}.cls-1,.cls-2{stroke-miterlimit:10;}.cls-2{fill:#0d2846;stroke:#0d2846;}</style></defs><path class="cls-1" d="M318.79,70.32a.88.88,0,0,0-1.24,0L305,82.88l-3.62,3.61a.88.88,0,0,0,1.24,1.24l3.62-3.62,12.57-12.56A.87.87,0,0,0,318.79,70.32Z" transform="translate(-1.76 -37.18)"/><path class="cls-1" d="M265.61,124l0,0a24.43,24.43,0,0,0-11.15-5.11.87.87,0,0,0-.31,1.72,22.38,22.38,0,0,1,10.35,4.73,17.33,17.33,0,0,1,4.89,7.45.89.89,0,0,0,.83.59.9.9,0,0,0,.28,0,.88.88,0,0,0,.55-1.11,19,19,0,0,0-5.4-8.2Z" transform="translate(-1.76 -37.18)"/><path class="cls-1" d="M249,57.8a.85.85,0,0,0,.61-.25L267.1,40a.87.87,0,0,0,0-1.23.88.88,0,0,0-1.24,0l-17.5,17.5a.88.88,0,0,0,0,1.24A.86.86,0,0,0,249,57.8Z" transform="translate(-1.76 -37.18)"/><path class="cls-1" d="M304.85,136a1.11,1.11,0,0,1-.12.13h0L279,161.88c-.43.44-.88.85-1.34,1.26a35.6,35.6,0,0,1-12.27,7h0a44.06,44.06,0,0,1-15.75,2.63,42.72,42.72,0,0,1-15.74-2.62h0a0,0,0,0,1,0,0c-5.27-1.75-9.27-4-12.23-7l0,0s0,0,0,0a27.65,27.65,0,0,1-7.78-10.58l0,0v0a29.87,29.87,0,0,1-2.79-13.41,31.1,31.1,0,0,1,2.79-13.63h0a29.8,29.8,0,0,1,6.32-9l19.13-19.15h0l6.6-6.58a.88.88,0,1,0-1.24-1.24l-6.33,6.33H205l24.25-24.24a.85.85,0,0,0,0-1.23.87.87,0,0,0-1.23,0L203.73,94.56V83l25.48-25.48A.87.87,0,1,0,228,56.31L202.24,82.05a.86.86,0,0,0-.26.62v14a.87.87,0,0,0,.87.88h33.62L218.82,115.2a31.67,31.67,0,0,0-6.66,9.51h0a32.78,32.78,0,0,0-3,14.36,31.51,31.51,0,0,0,3,14.13h0s0,0,0,0h0a29.3,29.3,0,0,0,8.19,11.13h0l0,0,0,0h0a32.09,32.09,0,0,0,12.79,7.34h.05a44.45,44.45,0,0,0,16.33,2.72,45.93,45.93,0,0,0,16.33-2.72h0a37.51,37.51,0,0,0,12.86-7.38c.49-.44,1-.88,1.42-1.33L306,137.37h0s0,0,0,0l.25-.26a.81.81,0,0,0-.1-1.16A1,1,0,0,0,304.85,136Z" transform="translate(-1.76 -37.18)"/><path class="cls-1" d="M305.6,158a.87.87,0,0,1-.87-.87V136.5a.87.87,0,1,1,1.74,0v20.6A.87.87,0,0,1,305.6,158Z" transform="translate(-1.76 -37.18)"/><path class="cls-1" d="M320,154.65a.88.88,0,0,1-.62-1.49l11.39-11.4A.87.87,0,1,1,332,143l-11.39,11.4A.87.87,0,0,1,320,154.65Z" transform="translate(-1.76 -37.18)"/><path class="cls-1" d="M359.11,161.39a.85.85,0,0,1-.61-.25.88.88,0,0,1,0-1.24L369.44,149a.88.88,0,0,1,1.24,1.24l-10.95,10.93A.86.86,0,0,1,359.11,161.39Z" transform="translate(-1.76 -37.18)"/><path class="cls-1" d="M348.23,123.48a.87.87,0,0,1-.62-1.49l21.83-21.82a.88.88,0,0,1,1.24,0,.87.87,0,0,1,0,1.23l-21.83,21.83A.88.88,0,0,1,348.23,123.48Z" transform="translate(-1.76 -37.18)"/><path class="cls-1" d="M305.6,91.23a.87.87,0,0,1-.87-.87V83.49a.87.87,0,0,1,1.74,0v6.87A.87.87,0,0,1,305.6,91.23Z" transform="translate(-1.76 -37.18)"/><path class="cls-1" d="M369,168.64a.87.87,0,0,1-.61-.26.85.85,0,0,1,0-1.23L386.52,149a.88.88,0,0,1,1.24,1.24l-18.17,18.17A.87.87,0,0,1,369,168.64Z" transform="translate(-1.76 -37.18)"/><path class="cls-1" d="M348.23,62.13a.89.89,0,0,1-.62-.26.87.87,0,0,1,0-1.23l21.83-21.83a.88.88,0,0,1,1.24,0,.87.87,0,0,1,0,1.23L348.85,61.87A.89.89,0,0,1,348.23,62.13Z" transform="translate(-1.76 -37.18)"/><path class="cls-1" d="M344.32,155.89a.87.87,0,0,1-.88-.87v-8.73a.88.88,0,0,1,1.75,0V155A.87.87,0,0,1,344.32,155.89Z" transform="translate(-1.76 -37.18)"/><path class="cls-1" d="M348.85,141.76a.88.88,0,0,0-1.24,0l-3.91,3.92-7.47,7.47a.85.85,0,0,0,0,1.23.86.86,0,0,0,1.23,0l7.47-7.47,3.92-3.92A.87.87,0,0,0,348.85,141.76Z" transform="translate(-1.76 -37.18)"/><path class="cls-1" d="M332,42.93a.87.87,0,0,0-1.23,0L317.35,56.31A.87.87,0,0,0,318,57.8h.21a.68.68,0,0,0,.64-.49L332,44.16A.87.87,0,0,0,332,42.93Z" transform="translate(-1.76 -37.18)"/><path class="cls-1" d="M334.39,209.11s0,0,0,0,0,0,0-.05a31.94,31.94,0,0,0-7.19-8h0l0,0a40.65,40.65,0,0,0-10.94-5.26s0,0,0,0h0A55.82,55.82,0,0,0,302.72,194a53.86,53.86,0,0,0-7.51.53.87.87,0,0,0,.24,1.73,52,52,0,0,1,7.27-.51,54.26,54.26,0,0,1,13,1.62,38.67,38.67,0,0,1,10.41,5,29.94,29.94,0,0,1,6.75,7.55,22.16,22.16,0,0,1,2.32,8.57.87.87,0,0,0,.87.82h.06a.87.87,0,0,0,.81-.93A24.17,24.17,0,0,0,334.39,209.11Z" transform="translate(-1.76 -37.18)"/><path class="cls-1" d="M369.51,219.88a.88.88,0,0,0-1.24,0l-25.74,25.73a44.71,44.71,0,0,1-3.5,3.16,54.21,54.21,0,0,1-16,8.29,72,72,0,0,1-20.34,2.84,68.43,68.43,0,0,1-19.92-2.84,52,52,0,0,1-16-8.29,38.42,38.42,0,0,1-10.47-12.48h0A33.22,33.22,0,0,1,252.53,220a34.93,34.93,0,0,1,3.82-16.5,37.41,37.41,0,0,1,7-9.55l25.74-25.73a.88.88,0,0,0,0-1.24.87.87,0,0,0-1.23,0l-25.74,25.74a38.71,38.71,0,0,0-7.32,10,36.52,36.52,0,0,0-4,17.29,35,35,0,0,0,4,17.06h0v0h0a40,40,0,0,0,10.92,13h0a53.58,53.58,0,0,0,16.52,8.58h0a70.18,70.18,0,0,0,20.43,2.92,73.74,73.74,0,0,0,20.84-2.92h0a56.14,56.14,0,0,0,16.52-8.58h0a47.94,47.94,0,0,0,3.62-3.28l25.75-25.74A.87.87,0,0,0,369.51,219.88Z" transform="translate(-1.76 -37.18)"/><path class="cls-1" d="M514.65,209.71a0,0,0,0,0,0,0v0a28,28,0,0,0-7-8.06h0a0,0,0,0,0,0,0,37.63,37.63,0,0,0-10.54-5.28s0,0,0,0h0a56.44,56.44,0,0,0-20.87-1.21.86.86,0,0,0-.75,1,.88.88,0,0,0,1,.75,55,55,0,0,1,20.2,1.17,35.92,35.92,0,0,1,10,5,26.17,26.17,0,0,1,6.55,7.53,19.88,19.88,0,0,1,2.31,8.05.88.88,0,0,0,.87.81h.07a.86.86,0,0,0,.8-.93A21.59,21.59,0,0,0,514.65,209.71Z" transform="translate(-1.76 -37.18)"/><path class="cls-1" d="M549.91,220.15a.85.85,0,0,0-1.23,0L523,245.88c-1.08,1.07-2.24,2.11-3.44,3.1a52.85,52.85,0,0,1-15.76,8.08,74,74,0,0,1-20.55,2.84,70.68,70.68,0,0,1-20.54-2.84,48.45,48.45,0,0,1-15.77-8.28,37,37,0,0,1-10.06-12.49,35.14,35.14,0,0,1-3.62-16.08,34.22,34.22,0,0,1,3.62-15.46v0h0a34.59,34.59,0,0,1,7-10.12c.84-.84,1.76-1.67,2.81-2.54a.85.85,0,0,0,.3-.58l22.63-22.62a.87.87,0,0,0,0-1.23.85.85,0,0,0-1.23,0l-25.75,25.74a36.23,36.23,0,0,0-7.37,10.6h0v0h0a35.84,35.84,0,0,0-3.79,16.21,36.76,36.76,0,0,0,3.8,16.86,38.72,38.72,0,0,0,10.52,13.06,50.2,50.2,0,0,0,16.34,8.59h0a72.42,72.42,0,0,0,21.05,2.92,75.58,75.58,0,0,0,21-2.92h0a54,54,0,0,0,16.32-8.38h0c1.25-1,2.45-2.1,3.57-3.21h0l25.73-25.73A.87.87,0,0,0,549.91,220.15Z" transform="translate(-1.76 -37.18)"/><path class="cls-1" d="M533.44,125.75a.86.86,0,0,1-.62-.25.88.88,0,0,1,0-1.24l15-15a.87.87,0,0,1,1.23,1.23l-15,15A.85.85,0,0,1,533.44,125.75Z" transform="translate(-1.76 -37.18)"/><path class="cls-1" d="M553.62,125.75a.87.87,0,0,1-.62-1.49l11.74-11.74a.87.87,0,1,1,1.23,1.23L554.24,125.5A.88.88,0,0,1,553.62,125.75Z" transform="translate(-1.76 -37.18)"/><path class="cls-1" d="M553.42,63.1a.88.88,0,0,0-1.24,0L526.69,88.59h-103L448,64.33a.87.87,0,0,0,0-1.23.88.88,0,0,0-1.24,0L422.51,87.36V73.76L448,48.28a.87.87,0,0,0,0-1.23.88.88,0,0,0-1.24,0L421,72.78a.91.91,0,0,0-.25.62V89.47a.87.87,0,0,0,.87.87H526.17a252,252,0,0,1-2.61,34.42.87.87,0,0,0,.74,1h.13a.87.87,0,0,0,.86-.75,251.8,251.8,0,0,0,2.63-35.16l25.5-25.51A.87.87,0,0,0,553.42,63.1Z" transform="translate(-1.76 -37.18)"/><path class="cls-1" d="M601.39,140.32a.87.87,0,0,0-1.23,0L574.68,165.8H547.94a.88.88,0,0,0,0,1.75H575a.88.88,0,0,0,.62-.26l25.73-25.73A.88.88,0,0,0,601.39,140.32Z" transform="translate(-1.76 -37.18)"/><path class="cls-1" d="M470.67,165.8H393.88l24.25-24.24a.88.88,0,0,0,0-1.24.87.87,0,0,0-1.23,0l-24.25,24.25V151l25.48-25.48a.88.88,0,0,0,0-1.24.87.87,0,0,0-1.23,0L391.16,150a.86.86,0,0,0-.26.62v16.06a.87.87,0,0,0,.87.87h78.9a.88.88,0,0,0,0-1.75Z" transform="translate(-1.76 -37.18)"/><path class="cls-1" d="M491.44,90.9a.88.88,0,0,0-1.24,0l-25.73,25.74a.88.88,0,0,0-.26.62v7.62a.87.87,0,1,0,1.74,0v-7.26l25.49-25.48A.88.88,0,0,0,491.44,90.9Z" transform="translate(-1.76 -37.18)"/><path class="cls-1" d="M770.75,164.42a.87.87,0,0,0-1.23,0L744,189.9H728.38l24.26-24.25a.87.87,0,0,0,0-1.23.88.88,0,0,0-1.24,0l-24.25,24.24V65.53L752.64,40a.87.87,0,0,0,0-1.23.88.88,0,0,0-1.24,0L725.66,64.55a.88.88,0,0,0-.26.62v125.6a.87.87,0,0,0,.88.87H744.4a.84.84,0,0,0,.61-.26l25.74-25.73A.87.87,0,0,0,770.75,164.42Z" transform="translate(-1.76 -37.18)"/><path class="cls-1" d="M801.64,107a.88.88,0,0,0-1.24,0l-25.48,25.49h-4.78a.87.87,0,1,0,0,1.74h5.14a.87.87,0,0,0,.61-.25l25.75-25.75A.87.87,0,0,0,801.64,107Z" transform="translate(-1.76 -37.18)"/><path class="cls-1" d="M699.3,63.1a.88.88,0,0,0-1.24,0L672.59,88.59H607.51l24.25-24.26a.87.87,0,0,0-1.23-1.23L606.27,87.36V73.76l25.49-25.48a.87.87,0,0,0-1.23-1.23L604.79,72.78a.88.88,0,0,0-.26.62V89.47a.87.87,0,0,0,.87.87h66.48a65.85,65.85,0,0,1-7.71,21.33q-1.15,2-2.38,3.83a.88.88,0,0,0,.25,1.21,1,1,0,0,0,.48.14.87.87,0,0,0,.73-.4c.84-1.27,1.64-2.57,2.43-3.91a67.54,67.54,0,0,0,8.07-22.64L699.3,64.33A.87.87,0,0,0,699.3,63.1Z" transform="translate(-1.76 -37.18)"/><path class="cls-1" d="M692.3,115.09a.87.87,0,0,0-1.23,0l-25.75,25.74a105.78,105.78,0,0,1-22.05,16.86,138.34,138.34,0,0,1-30.22,13.08l23.24-23.24a.88.88,0,0,0-1.24-1.24L610,171.38a43.23,43.23,0,0,1-4.85-6s-.06,0-.08-.05,0-.06,0-.09a76.82,76.82,0,0,1-5.2-5.91L625,134.14a.87.87,0,0,0,0-1.23.88.88,0,0,0-1.24,0L598,158.65c-.09.08-.08.19-.13.29a.82.82,0,0,0-.11.28.79.79,0,0,0,.1.33c0,.09,0,.19.08.27a84.75,84.75,0,0,0,5.77,6.59,44.48,44.48,0,0,0,5.61,6.85s0,0,0,0a.86.86,0,0,0,.56.24,1,1,0,0,0,.24,0,141.21,141.21,0,0,0,34-14.29,107.61,107.61,0,0,0,22.41-17.14l25.74-25.74A.87.87,0,0,0,692.3,115.09Z" transform="translate(-1.76 -37.18)"/><path class="cls-1" d="M773.84,227.22a.85.85,0,0,0-1.23,0L747.12,252.7h-118l24.25-24.25a.87.87,0,0,0,0-1.23.85.85,0,0,0-1.23,0l-24.26,24.24V188l25.49-25.49a.87.87,0,0,0-1.23-1.23l-25.74,25.74a.88.88,0,0,0-.26.62v65.89a.87.87,0,0,0,.87.87H747.48a.88.88,0,0,0,.62-.26l25.74-25.73A.87.87,0,0,0,773.84,227.22Z" transform="translate(-1.76 -37.18)"/><path class="cls-1" d="M136,205l0,0s0,0,0,0a34.23,34.23,0,0,0-7.39-9.09h0l0,0A40.08,40.08,0,0,0,117.39,190h0l0,0A48.55,48.55,0,0,0,95,188.57a.87.87,0,1,0,.31,1.71,46.84,46.84,0,0,1,21.57,1.32,38.37,38.37,0,0,1,10.62,5.62,32.39,32.39,0,0,1,7,8.56A26,26,0,0,1,137,216.92a.88.88,0,0,0,1.75,0A27.66,27.66,0,0,0,136,205Z" transform="translate(-1.76 -37.18)"/><path class="cls-1" d="M169.62,220.17a.88.88,0,0,0-1.24,0l-23.1,23.1a.88.88,0,0,0-.35.17c-.73.85-1.48,1.67-2.28,2.46h0c-.77.79-1.58,1.54-2.41,2.25a57.86,57.86,0,0,1-16.4,8.7,67.12,67.12,0,0,1-20.32,3,63.62,63.62,0,0,1-20.12-3,48.94,48.94,0,0,1-16.19-8.5,41.85,41.85,0,0,1-10.89-13.71s0,0,0,0v0c-2.7-5-4-10.79-4-17.7a38.52,38.52,0,0,1,11.35-28.3l25.73-25.74a.88.88,0,0,0,0-1.24.87.87,0,0,0-1.23,0L62.4,187.38a40.42,40.42,0,0,0-11.86,29.54c0,7.2,1.38,13.25,4.21,18.5h0v0h0a43.56,43.56,0,0,0,11.32,14.25,50.69,50.69,0,0,0,16.76,8.8,65.21,65.21,0,0,0,20.66,3.14,69,69,0,0,0,20.85-3.13h0a59.4,59.4,0,0,0,16.93-9s0,0,0,0h0c.88-.76,1.72-1.54,2.54-2.36h0l0,0,25.72-25.7A.88.88,0,0,0,169.62,220.17Z" transform="translate(-1.76 -37.18)"/><path class="cls-1" d="M146.53,130.85a.87.87,0,0,0-1.23,0l-4.94,4.94-10.7,10.72a.85.85,0,0,0,0,1.23.86.86,0,0,0,1.23,0L141.59,137l4.94-4.95A.87.87,0,0,0,146.53,130.85Z" transform="translate(-1.76 -37.18)"/><path class="cls-1" d="M116.9,82.92a.88.88,0,0,1-.62-1.49l18.93-18.94a.88.88,0,0,1,1.24,0,.87.87,0,0,1,0,1.23L117.51,82.66A.87.87,0,0,1,116.9,82.92Z" transform="translate(-1.76 -37.18)"/><path class="cls-1" d="M82.91,89.72h-16a.88.88,0,0,1,0-1.75h16a.88.88,0,1,1,0,1.75Z" transform="translate(-1.76 -37.18)"/><path class="cls-1" d="M50,71.76a.86.86,0,0,0-1.24,0L32.27,88.23,23,97.49a.87.87,0,0,0-.25.62c0,3.82.21,8,.61,12,0,4.5.21,8.85.41,13.15,0,1.43,0,2.87.06,4.28a.87.87,0,0,0,.87.85h0a.87.87,0,0,0,.85-.89c0-1.4-.06-2.83-.06-4.24,0,0,0-.08-.05-.12h.05c-.2-4.21-.4-8.56-.4-13,0,0,0,0,0,0s0,0,0,0c-.39-3.86-.59-7.82-.6-11.51l9-9L50,73A.87.87,0,0,0,50,71.76Z" transform="translate(-1.76 -37.18)"/><path class="cls-1" d="M101,70.72a.88.88,0,0,0-1.24,0L82.3,88.23l-8.19,8.19a.82.82,0,0,0-.3.61c-.21,3.82-.41,7.88-.41,12-.42,4.59-.62,8.91-.62,13.19,0,0,0,.32,0,.32a.88.88,0,0,0,.78,1h.09a.88.88,0,0,0,.87-.78c0-.11,0-.22,0-.33h-.06s0-.07,0-.11h0a0,0,0,0,1,0,0s0,0,0,0c0-4.25.2-8.53.62-13.09,0,0,0,0,0,0s0,0,0,0c0-3.93.19-7.86.39-11.57l8-8L101,72A.87.87,0,0,0,101,70.72Z" transform="translate(-1.76 -37.18)"/><path class="cls-1" d="M89.78,160.32c-18.83,1.86-39.22,2.81-60.6,2.81H5.74L30,138.88a.87.87,0,0,0,0-1.23.88.88,0,0,0-1.24,0L4.51,161.89v-13l20.81-20.81L30,123.44a.88.88,0,1,0-1.24-1.24l-4.68,4.67L3,147.94a.85.85,0,0,0-.26.61V164a.87.87,0,0,0,.88.87H29.18c21.44,0,41.89-.94,60.77-2.81a.87.87,0,0,0,.78-.95A.91.91,0,0,0,89.78,160.32Z" transform="translate(-1.76 -37.18)"/><path class="cls-1" d="M32.88,88H8.21L32.47,63.72a.87.87,0,0,0,0-1.23.88.88,0,0,0-1.24,0L7,86.74v-13L32.47,48.28a.87.87,0,0,0,0-1.23.88.88,0,0,0-1.24,0L5.49,72.78a.88.88,0,0,0-.26.62V88.84a.88.88,0,0,0,.88.88H32.88a.88.88,0,1,0,0-1.75Z" transform="translate(-1.76 -37.18)"/><path class="cls-1" d="M116.24,100.26a.88.88,0,0,1-.62-1.49L136,78.34a.88.88,0,0,1,1.24,1.24L116.85,100A.87.87,0,0,1,116.24,100.26Z" transform="translate(-1.76 -37.18)"/><path class="cls-1" d="M157.65,154.39a.88.88,0,0,1-.61-1.49l9.06-9.08a.87.87,0,0,1,1.23,1.24l-9.06,9.07A.87.87,0,0,1,157.65,154.39Z" transform="translate(-1.76 -37.18)"/><path class="cls-1" d="M145.81,131.63a.89.89,0,0,1-.62-.26.87.87,0,0,1,0-1.23l20.91-20.91a.87.87,0,0,1,1.23,0,.85.85,0,0,1,0,1.23l-20.9,20.91A.91.91,0,0,1,145.81,131.63Z" transform="translate(-1.76 -37.18)"/><path class="cls-1" d="M150.66,95.89a.86.86,0,0,1-.62-.25.88.88,0,0,1,0-1.24L166.1,78.34a.87.87,0,0,1,1.23,1.24L151.27,95.64A.85.85,0,0,1,150.66,95.89Z" transform="translate(-1.76 -37.18)"/><path class="cls-1" d="M127.9,119.48a.86.86,0,0,1-.62-.25.88.88,0,0,1,0-1.24l8.75-8.76a.88.88,0,0,1,1.24,0,.87.87,0,0,1,0,1.23l-8.76,8.77A.85.85,0,0,1,127.9,119.48Z" transform="translate(-1.76 -37.18)"/><path class="cls-1" d="M127,105.58H116a.88.88,0,1,1,0-1.75H127a.88.88,0,0,1,0,1.75Z" transform="translate(-1.76 -37.18)"/><path class="cls-1" d="M116.82,84.84a.88.88,0,0,1-.62-1.49L136,63.52a.88.88,0,0,1,1.24,0,.87.87,0,0,1,0,1.23L117.43,84.58A.87.87,0,0,1,116.82,84.84Z" transform="translate(-1.76 -37.18)"/><path class="cls-1" d="M141,149a.87.87,0,0,1-.88-.87V136.41a.88.88,0,0,1,1.75,0v11.71A.87.87,0,0,1,141,149Z" transform="translate(-1.76 -37.18)"/><path class="cls-1" d="M168.49,161.66a.89.89,0,0,1-.62-.25.88.88,0,0,1,0-1.24l16.35-16.35a.88.88,0,0,1,1.24,1.24l-16.35,16.35A.88.88,0,0,1,168.49,161.66Z" transform="translate(-1.76 -37.18)"/><path class="cls-1" d="M142,65a.89.89,0,0,1-.62-.26.87.87,0,0,1,0-1.23L166.1,38.81a.87.87,0,0,1,1.23,0,.85.85,0,0,1,0,1.23l-24.7,24.71A.89.89,0,0,1,142,65Z" transform="translate(-1.76 -37.18)"/><path class="cls-1" d="M137.27,94.4a.88.88,0,0,0-1.24,0l-9.67,9.69L115,115.46a.87.87,0,1,0,1.23,1.23l11.38-11.37,9.67-9.68A.88.88,0,0,0,137.27,94.4Z" transform="translate(-1.76 -37.18)"/><path class="cls-2" d="M387.14,37.68H370.06a1.74,1.74,0,0,0-1.75,1.74V83H350V43.55a1.75,1.75,0,0,0-1.75-1.75H331.34a1.74,1.74,0,0,0-1.74,1.75v98.83a1.74,1.74,0,0,0,1.74,1.74h16.89a1.74,1.74,0,0,0,1.75-1.74V102.53h18.33v47.06a1.74,1.74,0,0,0,1.75,1.74h17.08a1.74,1.74,0,0,0,1.74-1.74V39.42A1.74,1.74,0,0,0,387.14,37.68ZM385.4,147.84H371.8v-47A1.74,1.74,0,0,0,370.06,99H348.23a1.74,1.74,0,0,0-1.74,1.75v39.84h-13.4V45.29h13.4V84.73a1.74,1.74,0,0,0,1.74,1.74h21.83a1.74,1.74,0,0,0,1.74-1.74V41.17h13.6Z" transform="translate(-1.76 -37.18)"/><path class="cls-2" d="M360.9,183l-.06-.07a.32.32,0,0,0,0-.09,33,33,0,0,0-7.39-8.25s0,0-.05,0l-.06,0a41.45,41.45,0,0,0-11.17-5.37h0l0,0a55.15,55.15,0,0,0-27,0H315a37.4,37.4,0,0,0-11,5.42,26.45,26.45,0,0,0-3.16,2.72h0l-.53.53a2.11,2.11,0,0,0-.21.31,27.07,27.07,0,0,0-3.56,4.79,22.67,22.67,0,0,0-2.89,11.36c0,.41,0,.81,0,1.22h0a19.65,19.65,0,0,0,2.85,9.67v0a.41.41,0,0,0,.05.09l0,0h0a24.79,24.79,0,0,0,7.45,8.3A37.26,37.26,0,0,0,315,219H315a52.91,52.91,0,0,0,13.42,1.7,59.21,59.21,0,0,0,7.8-.53h0a56.4,56.4,0,0,0,6-1.17.05.05,0,0,0,0,0h.06a42.94,42.94,0,0,0,10.94-5.16l.07-.06,0,0,.37-.3a1.65,1.65,0,0,0,.75-.42l2.1-2.09,0,0h0a22.27,22.27,0,0,0,4.17-5.68h0s0,0,0,0,0,0,0,0a0,0,0,0,0,0,0,22.08,22.08,0,0,0,2.65-10.84A24.93,24.93,0,0,0,360.9,183Zm-3.07,20.51,0,0,0,0a18.87,18.87,0,0,1-3.57,4.87,33.41,33.41,0,0,1-2.88,2.51,39.25,39.25,0,0,1-10,4.69,54.4,54.4,0,0,1-5.57,1.08h0A51.27,51.27,0,0,1,316,215.65a33.67,33.67,0,0,1-9.94-4.87,21.38,21.38,0,0,1-6.5-7.24s0,0,0-.06,0,0,0-.06a16.08,16.08,0,0,1-2.37-8.1h0c0-.35,0-.7,0-1a19.19,19.19,0,0,1,2.44-9.64,22.9,22.9,0,0,1,3.74-4.89h0a23.69,23.69,0,0,1,2.75-2.37,34,34,0,0,1,10-4.89,51.57,51.57,0,0,1,25.21,0,37.71,37.71,0,0,1,10.14,4.88,29.4,29.4,0,0,1,6.5,7.27,21.54,21.54,0,0,1,2.26,9.64A18.54,18.54,0,0,1,357.83,203.49Z" transform="translate(-1.76 -37.18)"/><path class="cls-2" d="M377.59,176.63s0,0,0,0a.09.09,0,0,1,0,0,45.75,45.75,0,0,0-3.65-5.69,44,44,0,0,0-3.69-4.31h0a44.62,44.62,0,0,0-3.8-3.49l0,0,0,0a60.2,60.2,0,0,0-17-8.49h0l0,0c-1.52-.44-3.07-.84-4.63-1.18h0A71.85,71.85,0,0,0,337,152h0a76.13,76.13,0,0,0-8.57-.48,71.11,71.11,0,0,0-20.68,2.95h0s0,0,0,0c-.93.3-1.85.61-2.74.93h0A52,52,0,0,0,290.94,163l0,0h0a47.54,47.54,0,0,0-3.65,3.3h0a39.49,39.49,0,0,0-7.48,10.2,37.39,37.39,0,0,0-4.1,17.69,35.94,35.94,0,0,0,4.08,17.44v0s0,0,0,0v0h0a41.2,41.2,0,0,0,11.12,13.29h0v0a55.34,55.34,0,0,0,16.81,8.72h0a70.77,70.77,0,0,0,20.68,2.95,74.41,74.41,0,0,0,21.08-2.95h.07a57.9,57.9,0,0,0,16.78-8.71v0l0,0c1.37-1.13,2.58-2.22,3.69-3.33h0a42.54,42.54,0,0,0,7.43-10,0,0,0,0,1,0,0h0a38.71,38.71,0,0,0,4.1-17.46A40,40,0,0,0,377.59,176.63Zm-3.12,33.52a39,39,0,0,1-6.81,9.11c-1.07,1.07-2.22,2.09-3.43,3.09a54.05,54.05,0,0,1-15.7,8.14,71.34,71.34,0,0,1-20.07,2.8,67.28,67.28,0,0,1-19.66-2.8,50.89,50.89,0,0,1-15.7-8.14,37.67,37.67,0,0,1-10.23-12.18s0,0,0,0a0,0,0,0,1,0,0,32.38,32.38,0,0,1-3.7-15.84,34,34,0,0,1,3.73-16.1,35.57,35.57,0,0,1,6.84-9.32h0c1-1,2.16-2.05,3.38-3.05a48.6,48.6,0,0,1,13.11-7.06h0c.84-.3,1.7-.6,2.58-.88A67.3,67.3,0,0,1,328.46,155a71.57,71.57,0,0,1,8.18.46h0a70.16,70.16,0,0,1,7.29,1.22h0c1.49.33,2.95.71,4.39,1.12a56.75,56.75,0,0,1,15.91,7.95,41.88,41.88,0,0,1,3.48,3.19h0a40.9,40.9,0,0,1,6.74,9.2,36.43,36.43,0,0,1,3.73,16.09A35.24,35.24,0,0,1,374.47,210.15Z" transform="translate(-1.76 -37.18)"/><path class="cls-2" d="M292,97.64l0,0,0,0a25.93,25.93,0,0,0-16.75-5.75,25.08,25.08,0,0,0-16.78,5.78,0,0,0,0,1,0,0h0c-.29.26-.56.52-.82.78a20.59,20.59,0,0,0-5.94,14.93,21.87,21.87,0,0,0,1.07,7h0a18.52,18.52,0,0,0,5.67,8.33v0h0l0,0h0a23,23,0,0,0,11.53,5.53h0a29.66,29.66,0,0,0,5.2.43,24.71,24.71,0,0,0,16.79-6c.41-.35.81-.72,1.19-1.1h0a19.34,19.34,0,0,0,5.58-14.22A20.52,20.52,0,0,0,292,97.64Zm-1.3,27.46h0c-.32.32-.66.63-1,.93a21.38,21.38,0,0,1-14.51,5.13,26,26,0,0,1-4.62-.38h0a19.22,19.22,0,0,1-9.85-4.72s0,0,0,0,0,0,0,0a15.15,15.15,0,0,1-4.68-6.83h0a18.43,18.43,0,0,1-.89-5.84A16.93,16.93,0,0,1,260,100.88l.65-.62c3.91-3.32,8.65-4.94,14.51-4.94a22.15,22.15,0,0,1,14.51,5,16.86,16.86,0,0,1,5.57,13.07A16,16,0,0,1,290.65,125.1Z" transform="translate(-1.76 -37.18)"/><path class="cls-2" d="M313.59,98.66l0,0a.13.13,0,0,1,0-.06A43.8,43.8,0,0,0,305,87.2l-.09-.06a.73.73,0,0,1-.08-.09c-.61-.46-1.21-.92-1.83-1.36h0a51.22,51.22,0,0,0-11.16-6.09h-.05a.05.05,0,0,0,0,0A51.11,51.11,0,0,0,275.33,77a49.75,49.75,0,0,0-16.42,2.57h0a43.16,43.16,0,0,0-13.11,7.54c-.63.57-1.24,1.13-1.82,1.72a32.6,32.6,0,0,0-6.83,9.74h0v0h0a34.17,34.17,0,0,0-3,14.7,32.42,32.42,0,0,0,3,14.47v0l0,0s0,0,0,0h0a30.31,30.31,0,0,0,8.34,11.35h0l.06.06.06.05h0c3.2,3.16,7.46,5.61,13,7.47h.05l0,0h0a45.43,45.43,0,0,0,16.6,2.76A46.82,46.82,0,0,0,292,146.91H292a38.27,38.27,0,0,0,13.1-7.53c.5-.44,1-.9,1.47-1.38,0,0,.06-.11.11-.16s.1-.06.15-.1a36.37,36.37,0,0,0,6.71-9.83v0h0a35.6,35.6,0,0,0,3-14.52A37.07,37.07,0,0,0,313.59,98.66Zm-3.19,27.75a33,33,0,0,1-6,8.87s-.06.1-.1.15a1.7,1.7,0,0,0-.14.1c-.42.42-.86.83-1.31,1.23a34.41,34.41,0,0,1-12,6.86h0a43.48,43.48,0,0,1-15.46,2.56,41.8,41.8,0,0,1-15.42-2.55h-.05l0,0c-5.14-1.72-9-3.94-11.87-6.78l-.07-.05s0-.05,0-.06a26.77,26.77,0,0,1-7.54-10.26s0,0,0,0,0,0,0,0a29,29,0,0,1-2.7-13,30.28,30.28,0,0,1,2.72-13.25v0h0a29.43,29.43,0,0,1,6.13-8.75c.54-.53,1.1-1,1.67-1.57a39.79,39.79,0,0,1,12-6.87,46.5,46.5,0,0,1,15.26-2.37,47.65,47.65,0,0,1,15.26,2.37A46.78,46.78,0,0,1,301,88.53h0c.55.4,1.09.8,1.62,1.21a40.21,40.21,0,0,1,7.81,10.34,33.6,33.6,0,0,1,2.73,13.26A32.14,32.14,0,0,1,310.4,126.41Z" transform="translate(-1.76 -37.18)"/><path class="cls-2" d="M318.17,55.19l-.1,0-.11,0H286.14V39.42a1.74,1.74,0,0,0-1.74-1.74H266.48a1.74,1.74,0,0,0-1.74,1.74V55.19H228.6a1.74,1.74,0,0,0-1.75,1.74v14a1.74,1.74,0,0,0,1.75,1.74h89.57a1.74,1.74,0,0,0,1.74-1.74v-14A1.74,1.74,0,0,0,318.17,55.19ZM284.4,58.67h32V69.19H230.34V58.67h36.14a1.74,1.74,0,0,0,1.75-1.74V41.17h14.42V56.93A1.74,1.74,0,0,0,284.4,58.67Z" transform="translate(-1.76 -37.18)"/><path class="cls-2" d="M541.16,183.57l0,0v0a28.49,28.49,0,0,0-7.24-8.34l0,0,0,0a39,39,0,0,0-10.78-5.39h0l-.06,0a57,57,0,0,0-13.81-1.7,53.09,53.09,0,0,0-13.61,1.7l0,0h0A36.26,36.26,0,0,0,484.64,175a27.5,27.5,0,0,0-3.18,2.72h0l-.54.53a1.72,1.72,0,0,0-.22.33,26.7,26.7,0,0,0-3.55,4.78v0s0,0,0,0a23.2,23.2,0,0,0-2.68,11.12c0,.53,0,1.06,0,1.58h0a21.48,21.48,0,0,0,2.63,9.5h0l0,0v0h0a24.48,24.48,0,0,0,7.49,8.38,36.69,36.69,0,0,0,11,5h.06a52.89,52.89,0,0,0,13.41,1.7,56.66,56.66,0,0,0,7.37-.48h0A55,55,0,0,0,523,219l0,0h.06a39,39,0,0,0,10.79-5.39s0,0,0-.05h0a33,33,0,0,0,2.91-2.56h0a24,24,0,0,0,4.3-5.75h0v0l0,0v0a21.35,21.35,0,0,0,2.67-10.68A22.65,22.65,0,0,0,541.16,183.57Zm-3.06,19.92v0l0,0a20.85,20.85,0,0,1-3.73,5,30.09,30.09,0,0,1-2.58,2.27,35.22,35.22,0,0,1-9.71,4.86,53.66,53.66,0,0,1-6,1.13h0a51.29,51.29,0,0,1-19.44-1.14,33.44,33.44,0,0,1-9.93-4.45,21.19,21.19,0,0,1-6.49-7.24v0a0,0,0,0,1,0,0,18.12,18.12,0,0,1-2.21-8h0c0-.46,0-.92,0-1.39A19.86,19.86,0,0,1,480.2,185a23.24,23.24,0,0,1,3.72-4.89,23.59,23.59,0,0,1,2.76-2.36,32.6,32.6,0,0,1,9.78-4.69,49.45,49.45,0,0,1,12.68-1.58,53.64,53.64,0,0,1,12.92,1.58,35.68,35.68,0,0,1,9.73,4.88,25.06,25.06,0,0,1,6.3,7.27,19.2,19.2,0,0,1,2.25,9.24A17.84,17.84,0,0,1,538.1,203.49Z" transform="translate(-1.76 -37.18)"/><path class="cls-2" d="M561.74,194.48a39.78,39.78,0,0,0-3.89-17.66,38.75,38.75,0,0,0-8.73-11.42h0c-.7-.64-1.44-1.28-2.2-1.91h0l0,0a55,55,0,0,0-16.58-8.51h0a.05.05,0,0,0,0,0A76.32,76.32,0,0,0,508.94,152a68.37,68.37,0,0,0-21.55,3.18h0a51.35,51.35,0,0,0-16.57,9.15h0l0,0h0c-.42.34-.83.68-1.22,1h0c-.6.53-1.18,1.08-1.74,1.64h0a37.23,37.23,0,0,0-7.54,10.82h0l0,0v0h0a36.93,36.93,0,0,0-3.87,16.58,37.68,37.68,0,0,0,3.9,17.25A40.15,40.15,0,0,0,471,225.07a51.43,51.43,0,0,0,16.62,8.75h0a73,73,0,0,0,21.3,2.95,76.18,76.18,0,0,0,21.28-2.95h.06a55.25,55.25,0,0,0,16.58-8.5s0,0,0,0l0,0c1.28-1.05,2.5-2.15,3.63-3.27h0a38,38,0,0,0,7.32-10.05A38.66,38.66,0,0,0,561.74,194.48Zm-13.67,25h0q-1.56,1.56-3.35,3a52.13,52.13,0,0,1-15.5,7.93,72.71,72.71,0,0,1-20.27,2.8,69.65,69.65,0,0,1-20.29-2.8,48,48,0,0,1-15.46-8.12,36.33,36.33,0,0,1-9.84-12.2,34.21,34.21,0,0,1-3.53-15.69,33.37,33.37,0,0,1,3.53-15.08s0,0,0,0,0,0,0,0a33.34,33.34,0,0,1,6.87-9.86h0c.5-.5,1-1,1.59-1.49h0c.37-.34.76-.66,1.15-1l0,0h0a48,48,0,0,1,15.49-8.52,64.9,64.9,0,0,1,20.44-3,72.68,72.68,0,0,1,20.28,2.81,51.47,51.47,0,0,1,15.49,7.93q1.06.88,2,1.77h0a35.29,35.29,0,0,1,8,10.38,36.35,36.35,0,0,1,3.53,16.13,33.76,33.76,0,0,1-10.18,25Z" transform="translate(-1.76 -37.18)"/><path class="cls-2" d="M567,113.76a2.15,2.15,0,0,0,.1-.27c3.72-17.74,5.6-39.89,5.6-65.83a1.74,1.74,0,0,0-1.74-1.74H447.37a1.74,1.74,0,0,0-1.75,1.74V63.72a1.74,1.74,0,0,0,1.75,1.74H551a268.2,268.2,0,0,1-4.25,44.09,1.15,1.15,0,0,0,0,.32,1.2,1.2,0,0,0,0,.33,1.52,1.52,0,0,0,.12.32,2.71,2.71,0,0,0,.13.3c.07.09.16.16.24.25a2.39,2.39,0,0,0,.23.22,1.43,1.43,0,0,0,.34.14,1.31,1.31,0,0,0,.27.12c2.83.61,5.75,1.24,8.7,1.66h0c2.65.61,5.38,1.24,8.3,1.65a1.06,1.06,0,0,0,.25,0,1.63,1.63,0,0,0,.59-.11.78.78,0,0,0,.2-.11,1.5,1.5,0,0,0,.32-.19,5.84,5.84,0,0,0,.38-.45C566.9,113.94,566.92,113.84,567,113.76Zm-9.37-4h-.15l-.07,0c-2.31-.33-4.63-.81-6.92-1.29a267,267,0,0,0,4.09-44.76A1.74,1.74,0,0,0,552.8,62H449.11V49.41h120c-.09,24.15-1.83,44.88-5.19,61.71C561.78,110.74,559.65,110.29,557.59,109.81Z" transform="translate(-1.76 -37.18)"/><path class="cls-2" d="M600.77,123.14H510.69V91.52a1.74,1.74,0,0,0-1.75-1.74H490.82a1.74,1.74,0,0,0-1.75,1.74v31.62H417.52a1.74,1.74,0,0,0-1.75,1.74v16.06a1.75,1.75,0,0,0,1.75,1.75H600.77a1.75,1.75,0,0,0,1.75-1.75V124.88A1.74,1.74,0,0,0,600.77,123.14ZM599,139.2H419.26V126.62h71.56a1.74,1.74,0,0,0,1.74-1.74V93.27H507.2v31.61a1.74,1.74,0,0,0,1.74,1.74H599Z" transform="translate(-1.76 -37.18)"/><path class="cls-2" d="M801,90H771.88V39.42a1.74,1.74,0,0,0-1.74-1.74H752a1.74,1.74,0,0,0-1.75,1.74V165a1.75,1.75,0,0,0,1.75,1.75h18.12a1.74,1.74,0,0,0,1.74-1.75V109.32H801a1.74,1.74,0,0,0,1.74-1.74V91.73A1.75,1.75,0,0,0,801,90Zm-30.88,15.85a1.75,1.75,0,0,0-1.75,1.75v55.71H753.76V41.17h14.63V91.73a1.74,1.74,0,0,0,1.75,1.74h29.14v12.36Z" transform="translate(-1.76 -37.18)"/><path class="cls-2" d="M720.1,45.92h-89a1.74,1.74,0,0,0-1.74,1.74V63.72a1.74,1.74,0,0,0,1.74,1.74h65.4a64.48,64.48,0,0,1-7.4,20,80.1,80.1,0,0,1-12.79,16.58c-1,1-2.05,2-3.16,3a105,105,0,0,1-11.67,9.48h0a103.88,103.88,0,0,1-10.62,6.53,118.64,118.64,0,0,1-27,10.76,1.75,1.75,0,0,0-1.25,2.13c0,.05.07.08.09.13a1.66,1.66,0,0,0,.33.63c1.79,2.19,3.65,4.44,5.69,6.5a47.35,47.35,0,0,0,5.66,6.91l.14.09a.82.82,0,0,0,.17.11,1.67,1.67,0,0,0,.93.31h0a1.76,1.76,0,0,0,.46-.06,142,142,0,0,0,34.19-14.38,108.23,108.23,0,0,0,22.6-17.27h0q2.36-2.37,4.61-4.91a102.57,102.57,0,0,0,17.81-29.35,95.36,95.36,0,0,0,6.5-35A1.74,1.74,0,0,0,720.1,45.92Zm-8,35.47a99.11,99.11,0,0,1-17.18,28.33c-1.45,1.63-2.94,3.22-4.47,4.75a105.24,105.24,0,0,1-21.89,16.73,138.51,138.51,0,0,1-32.34,13.72,44,44,0,0,1-4.65-5.77c0-.05-.09-.08-.12-.13s-.06-.1-.1-.14c-1.39-1.38-2.69-2.9-4-4.43a121.91,121.91,0,0,0,25.17-10.3,108.78,108.78,0,0,0,11-6.74h0a107.8,107.8,0,0,0,12-9.77c1.13-1,2.21-2,3.27-3.1a83.62,83.62,0,0,0,13.34-17.3A68,68,0,0,0,700.4,64c0-.05,0-.09,0-.13s0-.09,0-.14a1.3,1.3,0,0,0,0-.21,1.28,1.28,0,0,0-.07-.34,1.17,1.17,0,0,0-.14-.3,1.27,1.27,0,0,0-.18-.27,1.37,1.37,0,0,0-.25-.23,1.2,1.2,0,0,0-.26-.18,1.38,1.38,0,0,0-.34-.12L699,62h-.13c-.05,0-.09,0-.14,0H632.89V49.41h85.38A91.52,91.52,0,0,1,712.1,81.39Z" transform="translate(-1.76 -37.18)"/><path class="cls-2" d="M773.22,210H672.42V161.94a1.74,1.74,0,0,0-1.74-1.75H652.76a1.74,1.74,0,0,0-1.74,1.75v65.89a1.74,1.74,0,0,0,1.74,1.75H773.22a1.75,1.75,0,0,0,1.75-1.75V211.78A1.75,1.75,0,0,0,773.22,210Zm-104.29,1.75a1.74,1.74,0,0,0,1.75,1.74h100.8v12.57h-117V163.68h14.42Z" transform="translate(-1.76 -37.18)"/><path class="cls-2" d="M184.84,37.68H166.72A1.74,1.74,0,0,0,165,39.42v23H136.65a1.74,1.74,0,0,0-1.74,1.74V79a1.74,1.74,0,0,0,1.74,1.74H165V93.27H136.65A1.74,1.74,0,0,0,134.91,95v14.83a1.74,1.74,0,0,0,1.74,1.74H165v32.85a1.74,1.74,0,0,0,1.75,1.74h18.12a1.74,1.74,0,0,0,1.74-1.74v-105A1.74,1.74,0,0,0,184.84,37.68Zm-16.38,72.17a1.74,1.74,0,0,0-1.74-1.75H138.4V96.76h28.32A1.74,1.74,0,0,0,168.46,95V79a1.74,1.74,0,0,0-1.74-1.75H138.4V65.88h28.32a1.74,1.74,0,0,0,1.74-1.75v-23H183.1V142.69H168.46Z" transform="translate(-1.76 -37.18)"/><path class="cls-2" d="M162.54,178.91l0-.06s0,0,0-.06a35,35,0,0,0-7.6-9.32s0,0,0,0,0,0,0,0a40.7,40.7,0,0,0-11.38-6h0l-.05,0c-10.44-3-19.45-2.67-27.75-.2l0,0h0a33.89,33.89,0,0,0-11.39,6h0l0,0-.06.05,0,0a24.93,24.93,0,0,0-2.8,2.43h0a26.74,26.74,0,0,0-5,6.93,27.08,27.08,0,0,0-2.8,10.63h0v0h0c0,.61-.05,1.23-.05,1.85a22.9,22.9,0,0,0,3.05,12.26v0l.09.15a0,0,0,0,0,0,0h0a25.3,25.3,0,0,0,7.8,9.29h0l0,0h0a37.93,37.93,0,0,0,11.4,5.81h0a46.82,46.82,0,0,0,13.47,1.93,50.52,50.52,0,0,0,8.9-.78h0a46.68,46.68,0,0,0,5-1.14s0,0,0,0h0A46.57,46.57,0,0,0,154.53,213s0,0,0,0l.07,0c.62-.51,1.19-1.05,1.77-1.59a1.59,1.59,0,0,0,.27-.18l.64-.63a29.48,29.48,0,0,0,5.18-7s0,0,0,0v0a27.65,27.65,0,0,0,2.85-12.31A28.71,28.71,0,0,0,162.54,178.91Zm-3.13,23a25.58,25.58,0,0,1-4.56,6.15,28.13,28.13,0,0,1-2.36,2.11,43.17,43.17,0,0,1-10.39,5.29,43.88,43.88,0,0,1-4.54,1h0a46.08,46.08,0,0,1-20.76-1,34.43,34.43,0,0,1-10.35-5.26h0A21.74,21.74,0,0,1,99.53,202a.71.71,0,0,1-.07-.09.32.32,0,0,0,0-.09,19.46,19.46,0,0,1-2.62-10.61c0-.55,0-1.09,0-1.63h0a23.7,23.7,0,0,1,2.44-9.3,23.21,23.21,0,0,1,4.36-6h0A22.14,22.14,0,0,1,106.2,172l0,0,.06,0a30.22,30.22,0,0,1,10.3-5.43c7.63-2.27,15.94-2.57,25.72.21a37.37,37.37,0,0,1,10.34,5.45,31.58,31.58,0,0,1,6.75,8.3,25.16,25.16,0,0,1,2.48,10.73A24.21,24.21,0,0,1,159.41,201.91Z" transform="translate(-1.76 -37.18)"/><path class="cls-2" d="M179.21,172.1l0,0a.08.08,0,0,0,0,0,48.89,48.89,0,0,0-9.48-12.49h0c-.73-.69-1.48-1.36-2.27-2l0,0,0,0a60.13,60.13,0,0,0-17.18-8.91h0a68,68,0,0,0-8.86-2.14h0a70.77,70.77,0,0,0-11-1h-1.07a71.88,71.88,0,0,0-20.67,3h0a51.76,51.76,0,0,0-17,9.15c-1,.78-1.92,1.59-2.82,2.42h0c-.39.37-.78.74-1.16,1.12h0A41.21,41.21,0,0,0,75.4,191.18c0,7.31,1.41,13.49,4.3,18.88,0,0,0,0,0,0v0h0a44.73,44.73,0,0,0,11.54,14.53,51.85,51.85,0,0,0,17,8.94,66.06,66.06,0,0,0,20.93,3.18,69.49,69.49,0,0,0,21.12-3.17h0a60.92,60.92,0,0,0,17.17-9.1l0-.05.06,0c.89-.78,1.74-1.57,2.57-2.39h0a51.89,51.89,0,0,0,8.93-12.1,0,0,0,0,0,0,0l0,0a41.46,41.46,0,0,0,4.3-18.69A43.76,43.76,0,0,0,179.21,172.1Zm-3.12,36.18a48.33,48.33,0,0,1-8.32,11.27c-.76.75-1.54,1.48-2.35,2.19a57.68,57.68,0,0,1-16.12,8.55,66.3,66.3,0,0,1-20.06,3,62.8,62.8,0,0,1-19.84-3A48.55,48.55,0,0,1,93.49,222a41.21,41.21,0,0,1-10.66-13.44s0,0,0,0a0,0,0,0,0,0,0c-2.63-4.88-3.91-10.54-3.91-17.29A37.79,37.79,0,0,1,90,163.49h0c.35-.35.7-.68,1.06-1h0c.84-.77,1.71-1.52,2.65-2.27a48.37,48.37,0,0,1,15.89-8.54,68.73,68.73,0,0,1,19.65-2.8h1a66.52,66.52,0,0,1,10.43,1h0a64.35,64.35,0,0,1,8.41,2,57,57,0,0,1,16.14,8.36c.71.59,1.4,1.2,2.06,1.82h0a45.9,45.9,0,0,1,8.78,11.58A40.35,40.35,0,0,1,180,191.18,38,38,0,0,1,176.09,208.28Z" transform="translate(-1.76 -37.18)"/><path class="cls-2" d="M146.84,123.72c0-.06,0-.1-.05-.16h0c-.42-2.5-.81-4.86-1-7.46a.24.24,0,0,1,0-.08s0,0,0-.07a2,2,0,0,0-.1-.26,1.66,1.66,0,0,0-.12-.31,1.59,1.59,0,0,0-.26-.32.77.77,0,0,0-.15-.16,1.48,1.48,0,0,0-.44-.25.52.52,0,0,0-.13-.06,1.62,1.62,0,0,0-.44-.07c-.07,0-.14,0-.21,0l-.08,0h-.08l-1.43.24c-4.44.74-8.63,1.43-12.65,1.8l-.07,0h-.07c-4.25.72-8.29,1.23-12.3,1.63l.08-2h0l.43-11.37h0L118.56,84h0l.08-1.92h0L119,71.4v-.06A1.8,1.8,0,0,0,119,71a1.94,1.94,0,0,0-.07-.33,1.61,1.61,0,0,0-.17-.28,1.38,1.38,0,0,0-.19-.28,1.65,1.65,0,0,0-.27-.19,1.65,1.65,0,0,0-.27-.19,1.37,1.37,0,0,0-.35-.08,1.57,1.57,0,0,0-.29-.08h-17a1.74,1.74,0,0,0-.22,0,1.33,1.33,0,0,0-.44.09.67.67,0,0,0-.12.06,1.59,1.59,0,0,0-.43.3,1.92,1.92,0,0,0-.13.17,2.05,2.05,0,0,0-.24.36,1.78,1.78,0,0,0-.09.33,1.53,1.53,0,0,0-.07.29c-.2,3.6-.42,7.78-.42,12-.41,4.66-.62,9-.62,13.17h0l0,1c-.19,4.18-.36,8.12-.37,11.94-.36,4-.54,7.39-.59,10.6-4.76.33-9.23.52-13.52.52H83c-3.51.28-6.85.36-9.38.39H70c-.19-3.4-.34-6.64-.34-10.19v-.08c-.21-4.39-.4-8.69-.4-13.09,0,0,0,0,0-.08s0-.06,0-.09c-.27-2.85-.45-5.65-.54-8.54h0c0-1.47-.07-3-.07-4.46,0,0,0,0,0,0s0,0,0,0c-.21-4-.41-8.13-.41-11.86a1.74,1.74,0,0,0-1.75-1.74H49.35a1.74,1.74,0,0,0-1.75,1.74c0,3.78.22,7.94.62,12,0,4.54.22,8.92.42,13.16,0,4.63.21,9.19.62,13.2,0,3.84.14,7.2.31,10.31H29.38a1.74,1.74,0,0,0-1.74,1.75v15.45A1.74,1.74,0,0,0,29.38,140H54.91c33.42,0,64.13-2.29,91.28-6.82h0l.09,0a1.58,1.58,0,0,0,.56-.21,1.29,1.29,0,0,0,.17-.16,2.27,2.27,0,0,0,.32-.3c0-.06,0-.13.09-.2a1.5,1.5,0,0,0,.18-.41c0-.05,0-.12,0-.17a1.75,1.75,0,0,0,0-.51C147.23,128.68,147,126.12,146.84,123.72Zm-91.93,12.8H31.12v-12h20.4a2.86,2.86,0,0,0,.28-.07,2.14,2.14,0,0,0,.34-.09,1.65,1.65,0,0,0,.27-.19,1.71,1.71,0,0,0,.27-.2,2.53,2.53,0,0,0,.18-.27,1.69,1.69,0,0,0,.17-.29,1.3,1.3,0,0,0,.07-.33,1.77,1.77,0,0,0,.06-.3.43.43,0,0,0,0,0s0,0,0,0c-.21-3.6-.41-7.5-.41-12,0,0,0,0,0-.08s0-.06,0-.09c-.4-3.93-.61-8.43-.61-13,0,0,0,0,0,0s0,0,0,0c-.21-4.23-.42-8.6-.42-13.09a.29.29,0,0,0,0-.09s0-.06,0-.09c-.34-3.4-.51-6.8-.56-10h13.6c.05,3.33.2,6.83.37,10.27,0,1.52,0,3,.07,4.51h0c.1,2.93.28,5.77.55,8.67,0,4.45.19,8.77.41,13.18h0c0,4.17.19,7.88.42,11.95a1.09,1.09,0,0,0,.08.31,1.46,1.46,0,0,0,.07.3,1.69,1.69,0,0,0,.21.31,2,2,0,0,0,.17.23,1.56,1.56,0,0,0,.34.23,2.26,2.26,0,0,0,.2.13,1.67,1.67,0,0,0,.67.14h0c1.75,0,3.54,0,5.34,0h0c2.57,0,6-.11,9.57-.4,4.83,0,9.83-.2,15.27-.62a1.19,1.19,0,0,0,.27-.07,1.91,1.91,0,0,0,.34-.1,2.53,2.53,0,0,0,.27-.18,2.65,2.65,0,0,0,.26-.21,1.59,1.59,0,0,0,.18-.27,2.19,2.19,0,0,0,.17-.29,2.05,2.05,0,0,0,.07-.34,2.33,2.33,0,0,0,0-.28c0-3.59.2-7.4.61-12,0,0,0,0,0-.08a.19.19,0,0,0,0-.07c0-3.77.18-7.71.36-11.88l0-1s0,0,0,0,0,0,0,0c0-4.14.2-8.4.61-13,0,0,0,0,0-.08s0,0,0-.08c0-3.51.15-7,.32-10.2h13.42L115.15,82h0l-.08,1.92h0l-.78,20.73h0L113.86,116h0l-.16,4.06s0,.07,0,.11,0,.07,0,.11a2.33,2.33,0,0,0,.07.25,1.38,1.38,0,0,0,.08.29,2,2,0,0,0,.19.31,1.28,1.28,0,0,0,.17.22,1.78,1.78,0,0,0,.31.23,1.64,1.64,0,0,0,.22.14,1.51,1.51,0,0,0,.42.1,1.29,1.29,0,0,0,.21,0h.22c4.75-.41,9.5-1,14.52-1.87,4-.37,8.11-1,12.43-1.76.22,2,.51,4,.82,5.82.14,1.9.33,3.91.6,5.93C117.41,134.32,87.48,136.52,54.91,136.52Z" transform="translate(-1.76 -37.18)"/><path class="cls-2" d="M135.83,45.92h-104a1.74,1.74,0,0,0-1.74,1.75V63.1a1.74,1.74,0,0,0,1.74,1.75h104a1.74,1.74,0,0,0,1.75-1.74V47.66A1.74,1.74,0,0,0,135.83,45.92ZM33.59,49.41h100.5v12H33.59Z" transform="translate(-1.76 -37.18)"/><path class="cls-2" d="M304.11,135.53a1.7,1.7,0,0,1,.14-.1c0-.05.06-.11.1-.15a33,33,0,0,0,6-8.87,32.14,32.14,0,0,0,2.73-13.07,33.6,33.6,0,0,0-2.73-13.26,40.21,40.21,0,0,0-7.81-10.34c-.53-.41-1.07-.81-1.62-1.21h0a46.78,46.78,0,0,0-10.37-5.66,47.65,47.65,0,0,0-15.26-2.37,46.5,46.5,0,0,0-15.26,2.37,39.79,39.79,0,0,0-12,6.87c-.57.52-1.13,1-1.67,1.57a29.43,29.43,0,0,0-6.13,8.75h0v0a30.28,30.28,0,0,0-2.72,13.25,29,29,0,0,0,2.7,13s0,0,0,0l0,0a26.77,26.77,0,0,0,7.54,10.26s0,0,0,.06l.07.05c2.84,2.84,6.73,5.06,11.87,6.78l0,0h.05a41.8,41.8,0,0,0,15.42,2.55,43.48,43.48,0,0,0,15.46-2.56h0a34.41,34.41,0,0,0,12-6.86C303.25,136.36,303.69,136,304.11,135.53Zm-11-8h0c-.38.38-.78.75-1.19,1.1a24.71,24.71,0,0,1-16.79,6,29.66,29.66,0,0,1-5.2-.43h0a23,23,0,0,1-11.53-5.53h0l0,0h0v0a18.52,18.52,0,0,1-5.67-8.33h0a21.87,21.87,0,0,1-1.07-7,20.59,20.59,0,0,1,5.94-14.93c.26-.26.53-.52.82-.78h0a0,0,0,0,0,0,0,25.08,25.08,0,0,1,16.78-5.78,25.93,25.93,0,0,1,16.75,5.75l0,0,0,0a20.52,20.52,0,0,1,6.75,15.7A19.34,19.34,0,0,1,293.12,127.56Z" transform="translate(-1.76 -37.18)"/><path class="cls-2" d="M282.65,56.93V41.17H268.23V56.93a1.74,1.74,0,0,1-1.75,1.74H230.34V69.19h86.08V58.67h-32A1.74,1.74,0,0,1,282.65,56.93Z" transform="translate(-1.76 -37.18)"/><path class="cls-2" d="M371.8,84.73a1.74,1.74,0,0,1-1.74,1.74H348.23a1.74,1.74,0,0,1-1.74-1.74V45.29h-13.4v95.34h13.4V100.79A1.74,1.74,0,0,1,348.23,99h21.83a1.74,1.74,0,0,1,1.74,1.75v47.05h13.6V41.17H371.8Z" transform="translate(-1.76 -37.18)"/><path class="cls-2" d="M371.12,173a40.79,40.79,0,0,0-3.4-4h0a41.88,41.88,0,0,0-3.48-3.19,56.75,56.75,0,0,0-15.91-7.95c-1.44-.41-2.9-.79-4.39-1.12h0a70.16,70.16,0,0,0-7.29-1.22h0a73.92,73.92,0,0,0-8.18-.46,67.3,67.3,0,0,0-19.67,2.81c-.88.28-1.74.58-2.58.88h0a48.6,48.6,0,0,0-13.11,7.06c-1.22,1-2.36,2-3.38,3.05h0a35.57,35.57,0,0,0-6.84,9.32,34,34,0,0,0-3.73,16.1,32.38,32.38,0,0,0,3.7,15.84,0,0,0,0,0,0,0s0,0,0,0a37.67,37.67,0,0,0,10.23,12.18,50.89,50.89,0,0,0,15.7,8.14,67.28,67.28,0,0,0,19.66,2.8,71.34,71.34,0,0,0,20.07-2.8,54.05,54.05,0,0,0,15.7-8.14c1.21-1,2.36-2,3.43-3.09a39,39,0,0,0,6.81-9.11,35.24,35.24,0,0,0,3.72-15.88,36.43,36.43,0,0,0-3.73-16.09A41,41,0,0,0,371.12,173Zm-10.21,32.16a0,0,0,0,1,0,0s0,0,0,0,0,0,0,0h0a22.27,22.27,0,0,1-4.17,5.68h0l0,0-2.1,2.09a1.65,1.65,0,0,1-.75.42l-.37.3,0,0-.07.06A42.94,42.94,0,0,1,342.37,219h-.06a.05.05,0,0,1,0,0,56.4,56.4,0,0,1-6,1.17h0a59.21,59.21,0,0,1-7.8.53A52.91,52.91,0,0,1,315,219H315a37.26,37.26,0,0,1-11-5.39,24.79,24.79,0,0,1-7.45-8.3h0l0,0a.41.41,0,0,1-.05-.09v0a19.65,19.65,0,0,1-2.85-9.67h0c0-.41,0-.81,0-1.22a22.67,22.67,0,0,1,2.89-11.36,27.07,27.07,0,0,1,3.56-4.79,2.11,2.11,0,0,1,.21-.31l.53-.53h0a26.45,26.45,0,0,1,3.16-2.72,37.65,37.65,0,0,1,11-5.42H315a55.15,55.15,0,0,1,27,0l0,0h0a41.45,41.45,0,0,1,11.17,5.37l.06,0s0,0,.05,0a33,33,0,0,1,7.39,8.25.32.32,0,0,1,0,.09l.06.07a24.93,24.93,0,0,1,2.66,11.29A22.08,22.08,0,0,1,360.91,205.11Z" transform="translate(-1.76 -37.18)"/><path class="cls-2" d="M142.55,118.25c-4.32.72-8.42,1.39-12.43,1.76-5,.85-9.77,1.46-14.52,1.87h-.22a1.29,1.29,0,0,1-.21,0,1.51,1.51,0,0,1-.42-.1,1.64,1.64,0,0,1-.22-.14,1.78,1.78,0,0,1-.31-.23,1.28,1.28,0,0,1-.17-.22,2,2,0,0,1-.19-.31,1.38,1.38,0,0,1-.08-.29,2.33,2.33,0,0,1-.07-.25s0-.07,0-.11,0-.07,0-.11l.16-4.06h0l.43-11.38h0l.78-20.73h0l.08-1.92h0l.34-8.89H102.07c-.17,3.18-.32,6.69-.32,10.2,0,0,0,0,0,.08s0,0,0,.08c-.41,4.62-.61,8.88-.61,13,0,0,0,0,0,0s0,0,0,0l0,1c-.18,4.17-.36,8.11-.36,11.88a.19.19,0,0,1,0,.07s0,0,0,.08c-.41,4.59-.61,8.4-.61,12a2.33,2.33,0,0,1,0,.28,2.05,2.05,0,0,1-.07.34,2.19,2.19,0,0,1-.17.29,1.59,1.59,0,0,1-.18.27,2.65,2.65,0,0,1-.26.21,2.53,2.53,0,0,1-.27.18,1.91,1.91,0,0,1-.34.1,1.19,1.19,0,0,1-.27.07c-5.44.42-10.44.62-15.27.62-3.6.29-7,.37-9.57.4h0c-1.8,0-3.59,0-5.34,0h0a1.67,1.67,0,0,1-.67-.14,2.26,2.26,0,0,1-.2-.13,1.56,1.56,0,0,1-.34-.23,2,2,0,0,1-.17-.23,1.69,1.69,0,0,1-.21-.31,1.46,1.46,0,0,1-.07-.3,1.09,1.09,0,0,1-.08-.31c-.23-4.07-.42-7.77-.42-11.95h0c-.22-4.41-.41-8.73-.41-13.18-.27-2.9-.45-5.74-.55-8.67h0c-.05-1.48-.07-3-.07-4.5-.17-3.45-.32-7-.37-10.28H51.14c0,3.22.22,6.62.56,10,0,0,0,.06,0,.09a.29.29,0,0,1,0,.09c0,4.49.21,8.86.42,13.09,0,0,0,0,0,0s0,0,0,0c0,4.57.21,9.07.61,13,0,0,0,0,0,.08s0,.06,0,.09c0,4.55.2,8.45.41,12,0,0,0,0,0,0a.43.43,0,0,1,0,0,1.5,1.5,0,0,1-.06.29,1.28,1.28,0,0,1-.07.34,1.69,1.69,0,0,1-.17.29,1.59,1.59,0,0,1-.18.27,1.71,1.71,0,0,1-.27.2,1.65,1.65,0,0,1-.27.19,2.14,2.14,0,0,1-.34.09,2.86,2.86,0,0,1-.28.07H31.12v12H54.91c32.57,0,62.5-2.2,89.06-6.52-.27-2-.46-4-.6-5.93C143.06,122.2,142.77,120.26,142.55,118.25Z" transform="translate(-1.76 -37.18)"/><path class="cls-2" d="M554.54,63.72a267,267,0,0,1-4.09,44.76c2.29.48,4.61,1,6.92,1.29l.07,0h.15c2.06.48,4.19.93,6.38,1.31,3.36-16.83,5.1-37.56,5.19-61.71h-120V62H552.8A1.74,1.74,0,0,1,554.54,63.72Z" transform="translate(-1.76 -37.18)"/><rect class="cls-2" x="31.83" y="12.23" width="100.49" height="11.95"/><path class="cls-2" d="M167.3,162.06h0c-.66-.62-1.35-1.23-2.06-1.82a57,57,0,0,0-16.14-8.36,64.35,64.35,0,0,0-8.41-2h0a66.52,66.52,0,0,0-10.43-1h-1a68.73,68.73,0,0,0-19.65,2.8A48.37,48.37,0,0,0,93.7,160.2c-.94.75-1.81,1.5-2.65,2.27h0c-.36.34-.71.67-1.06,1h0a37.79,37.79,0,0,0-11.1,27.69c0,6.75,1.28,12.41,3.91,17.29a0,0,0,0,1,0,0s0,0,0,0A41.21,41.21,0,0,0,93.49,222a48.55,48.55,0,0,0,15.91,8.33,62.8,62.8,0,0,0,19.84,3,66.3,66.3,0,0,0,20.06-3,57.68,57.68,0,0,0,16.12-8.55c.81-.71,1.59-1.44,2.35-2.19a48.33,48.33,0,0,0,8.32-11.27,38,38,0,0,0,3.92-17.1,40.35,40.35,0,0,0-3.93-17.54A45.9,45.9,0,0,0,167.3,162.06Zm-4.78,41.43v0s0,0,0,0a29.48,29.48,0,0,1-5.18,7l-.64.63a1.59,1.59,0,0,1-.27.18c-.58.54-1.15,1.08-1.77,1.59l-.07,0s0,0,0,0a46.57,46.57,0,0,1-11.33,5.76h0s0,0,0,0a46.68,46.68,0,0,1-5,1.14h0a50.52,50.52,0,0,1-8.9.78,46.82,46.82,0,0,1-13.47-1.93h0a37.93,37.93,0,0,1-11.4-5.81h0l0,0h0a25.3,25.3,0,0,1-7.8-9.29h0a0,0,0,0,1,0,0l-.09-.15v0a22.9,22.9,0,0,1-3.05-12.26c0-.62,0-1.24.05-1.85h0v0h0a27.08,27.08,0,0,1,2.8-10.63,26.74,26.74,0,0,1,5-6.93h0a24.93,24.93,0,0,1,2.8-2.43l0,0,.06-.05,0,0h0a33.89,33.89,0,0,1,11.39-6h0l0,0c8.3-2.47,17.31-2.78,27.75.2l.05,0h0a40.7,40.7,0,0,1,11.38,6s0,0,0,0,0,0,0,0a35,35,0,0,1,7.6,9.32s0,0,0,.06l0,.06a28.71,28.71,0,0,1,2.83,12.27A27.65,27.65,0,0,1,162.52,203.49Z" transform="translate(-1.76 -37.18)"/><path class="cls-2" d="M168.46,64.13a1.74,1.74,0,0,1-1.74,1.75H138.4V77.21h28.32A1.74,1.74,0,0,1,168.46,79V95a1.74,1.74,0,0,1-1.74,1.74H138.4V108.1h28.32a1.74,1.74,0,0,1,1.74,1.75v32.84H183.1V41.17H168.46Z" transform="translate(-1.76 -37.18)"/><path class="cls-2" d="M524.43,126.62H508.94a1.74,1.74,0,0,1-1.74-1.74V93.27H492.56v31.61a1.74,1.74,0,0,1-1.74,1.74H419.26V139.2H599V126.62h-74.6Z" transform="translate(-1.76 -37.18)"/><path class="cls-2" d="M694.92,109.72A99.11,99.11,0,0,0,712.1,81.39a91.76,91.76,0,0,0,6.18-32H632.89V62h65.79c.05,0,.09,0,.14,0H699l.19.08a1.38,1.38,0,0,1,.34.12,1.2,1.2,0,0,1,.26.18,1.37,1.37,0,0,1,.25.23,1.27,1.27,0,0,1,.18.27,1.17,1.17,0,0,1,.14.3,1.28,1.28,0,0,1,.07.34,1.3,1.3,0,0,1,0,.21c0,.05,0,.09,0,.13s0,.09,0,.14a68,68,0,0,1-8.24,23.25,83.62,83.62,0,0,1-13.34,17.3c-1.06,1-2.14,2.09-3.27,3.1a107.8,107.8,0,0,1-12,9.77h0a108.78,108.78,0,0,1-11,6.74,121.91,121.91,0,0,1-25.17,10.3c1.27,1.53,2.57,3.05,4,4.43,0,0,.06.1.1.14s.09.08.12.13a44,44,0,0,0,4.65,5.77,138.51,138.51,0,0,0,32.34-13.72,105.24,105.24,0,0,0,21.89-16.73C692,112.94,693.47,111.35,694.92,109.72Z" transform="translate(-1.76 -37.18)"/><path class="cls-2" d="M668.93,211.78v-48.1H654.51v62.41h117V213.52H670.68A1.74,1.74,0,0,1,668.93,211.78Z" transform="translate(-1.76 -37.18)"/><path class="cls-2" d="M768.39,91.73V41.17H753.76V163.29h14.63V107.58a1.75,1.75,0,0,1,1.75-1.75h29.14V93.47H770.14A1.74,1.74,0,0,1,768.39,91.73Z" transform="translate(-1.76 -37.18)"/><path class="cls-2" d="M445.62,47.66a1.74,1.74,0,0,1,1.75-1.74H570.92a1.74,1.74,0,0,1,1.74,1.74c0,25.94-1.88,48.09-5.6,65.83a2.15,2.15,0,0,1-.1.27c0,.08-.06.18-.11.26a5.84,5.84,0,0,1-.38.45,1.5,1.5,0,0,1-.32.19.78.78,0,0,1-.2.11,1.63,1.63,0,0,1-.59.11,1.06,1.06,0,0,1-.25,0c-2.92-.41-5.65-1-8.3-1.65h0c-2.95-.42-5.87-1-8.7-1.66a1.31,1.31,0,0,1-.27-.12,1.43,1.43,0,0,1-.34-.14,2.39,2.39,0,0,1-.23-.22c-.08-.09-.17-.16-.24-.25a2.71,2.71,0,0,1-.13-.3,1.52,1.52,0,0,1-.12-.32,1.2,1.2,0,0,1,0-.33,1.15,1.15,0,0,1,0-.32A268.2,268.2,0,0,0,551,65.46H447.37a1.74,1.74,0,0,1-1.75-1.74ZM29.38,140a1.74,1.74,0,0,1-1.74-1.74V122.82a1.74,1.74,0,0,1,1.74-1.75H49.57c-.17-3.11-.31-6.47-.31-10.31-.41-4-.62-8.57-.62-13.2-.2-4.24-.41-8.62-.42-13.16-.4-4.09-.62-8.25-.62-12a1.74,1.74,0,0,1,1.75-1.74H66.44a1.74,1.74,0,0,1,1.75,1.74c0,3.73.2,7.86.41,11.86,0,0,0,0,0,0s0,0,0,0c0,1.5,0,3,.07,4.46h0c.09,2.89.27,5.69.54,8.54,0,0,0,.06,0,.09s0,0,0,.08c0,4.4.19,8.7.4,13.09v.08c0,3.55.15,6.79.34,10.19H73.6c2.53,0,5.87-.11,9.38-.39h.14c4.29,0,8.76-.19,13.52-.52,0-3.21.23-6.61.59-10.6,0-3.82.18-7.76.37-11.94l0-1h0c0-4.2.21-8.51.62-13.17,0-4.2.22-8.38.42-12a1.53,1.53,0,0,1,.07-.29,1.78,1.78,0,0,1,.09-.33,2.05,2.05,0,0,1,.24-.36,1.92,1.92,0,0,1,.13-.17,1.59,1.59,0,0,1,.43-.3.67.67,0,0,1,.12-.06,1.33,1.33,0,0,1,.44-.09,1.74,1.74,0,0,1,.22,0h17a1.57,1.57,0,0,1,.29.08,1.37,1.37,0,0,1,.35.08,1.65,1.65,0,0,1,.27.19,1.65,1.65,0,0,1,.27.19,1.38,1.38,0,0,1,.19.28,1.61,1.61,0,0,1,.17.28A1.94,1.94,0,0,1,119,71a1.8,1.8,0,0,1,.06.32v.06l-.4,10.71h0L118.56,84h0l-.78,20.73h0l-.43,11.37h0l-.08,2c4-.4,8-.91,12.3-1.63h.07l.07,0c4-.37,8.21-1.06,12.65-1.8l1.43-.24h.08l.08,0c.07,0,.14,0,.21,0a1.62,1.62,0,0,1,.44.07.52.52,0,0,1,.13.06,1.48,1.48,0,0,1,.44.25.77.77,0,0,1,.15.16,1.59,1.59,0,0,1,.26.32,1.66,1.66,0,0,1,.12.31,2,2,0,0,1,.1.26s0,0,0,.07a.24.24,0,0,0,0,.08c.19,2.6.58,5,1,7.46h0c0,.06,0,.1.05.16.18,2.4.39,5,.8,7.47a1.75,1.75,0,0,1,0,.51c0,.05,0,.12,0,.17a1.5,1.5,0,0,1-.18.41c0,.07-.05.14-.09.2a2.27,2.27,0,0,1-.32.3,1.29,1.29,0,0,1-.17.16,1.58,1.58,0,0,1-.56.21l-.09,0h0C119,137.72,88.33,140,54.91,140Zm157.2,4.43a1.74,1.74,0,0,1-1.74,1.74H166.72a1.74,1.74,0,0,1-1.75-1.74V111.59H136.65a1.74,1.74,0,0,1-1.74-1.74V95a1.74,1.74,0,0,1,1.74-1.75H165V80.7H136.65A1.74,1.74,0,0,1,134.91,79V64.85H31.85a1.74,1.74,0,0,1-1.74-1.75V47.67a1.74,1.74,0,0,1,1.74-1.75h104a1.74,1.74,0,0,1,1.75,1.74V62.39H165v-23a1.74,1.74,0,0,1,1.75-1.74h18.12a1.74,1.74,0,0,1,1.74,1.74Zm40.27-73.5v-14a1.74,1.74,0,0,1,1.75-1.74h36.14V39.42a1.74,1.74,0,0,1,1.74-1.74H284.4a1.74,1.74,0,0,1,1.74,1.74V55.19H318l.11,0,.1,0a1.74,1.74,0,0,1,1.74,1.74v14a1.74,1.74,0,0,1-1.74,1.74H228.6A1.74,1.74,0,0,1,226.85,70.94Zm162,78.65a1.74,1.74,0,0,1-1.74,1.74H370.06a1.74,1.74,0,0,1-1.75-1.74V102.53H350v39.85a1.74,1.74,0,0,1-1.75,1.74H331.34a1.74,1.74,0,0,1-1.74-1.74V43.55a1.74,1.74,0,0,1,1.74-1.75h16.89A1.75,1.75,0,0,1,350,43.55V83h18.33V39.42a1.74,1.74,0,0,1,1.75-1.74h17.08a1.74,1.74,0,0,1,1.74,1.74Zm213.64-8.65a1.75,1.75,0,0,1-1.75,1.75H417.52a1.75,1.75,0,0,1-1.75-1.75V124.88a1.74,1.74,0,0,1,1.75-1.74h71.55V91.52a1.74,1.74,0,0,1,1.75-1.74h18.12a1.74,1.74,0,0,1,1.75,1.74v31.62h90.08a1.74,1.74,0,0,1,1.75,1.74Zm33.15,7.71h0a1.67,1.67,0,0,1-.93-.31.82.82,0,0,1-.17-.11l-.14-.09a47.35,47.35,0,0,1-5.66-6.91c-2-2.06-3.9-4.31-5.69-6.5a1.66,1.66,0,0,1-.33-.63s-.08-.08-.09-.13a1.75,1.75,0,0,1,1.25-2.13,118.64,118.64,0,0,0,27-10.76,103.88,103.88,0,0,0,10.62-6.53h0a105,105,0,0,0,11.67-9.48c1.11-1,2.15-2,3.16-3a80.1,80.1,0,0,0,12.79-16.58,64.48,64.48,0,0,0,7.4-20h-65.4a1.74,1.74,0,0,1-1.74-1.74V47.66a1.74,1.74,0,0,1,1.74-1.74h89a1.74,1.74,0,0,1,1.74,1.74,95.36,95.36,0,0,1-6.5,35A102.57,102.57,0,0,1,697.53,112q-2.25,2.53-4.61,4.91h0a108.23,108.23,0,0,1-22.6,17.27,142,142,0,0,1-34.19,14.38A1.76,1.76,0,0,1,635.67,148.65ZM775,227.83a1.75,1.75,0,0,1-1.75,1.75H652.76a1.74,1.74,0,0,1-1.74-1.75V161.94a1.74,1.74,0,0,1,1.74-1.75h17.92a1.74,1.74,0,0,1,1.74,1.75V210h100.8a1.75,1.75,0,0,1,1.75,1.75Zm27.79-120.25a1.74,1.74,0,0,1-1.74,1.74H771.88V165a1.74,1.74,0,0,1-1.74,1.75H752a1.75,1.75,0,0,1-1.75-1.75V39.42A1.74,1.74,0,0,1,752,37.68h18.12a1.74,1.74,0,0,1,1.74,1.74V90H801a1.75,1.75,0,0,1,1.74,1.75Z" transform="translate(-1.76 -37.18)"/><path class="cls-2" d="M546.76,168h0q-1-.89-2-1.77a51.47,51.47,0,0,0-15.49-7.93,72.68,72.68,0,0,0-20.28-2.81,64.9,64.9,0,0,0-20.44,3A48,48,0,0,0,473,167h0l0,0c-.39.32-.78.64-1.15,1h0c-.55.49-1.09,1-1.59,1.49h0a33.34,33.34,0,0,0-6.87,9.86s0,0,0,0,0,0,0,0a33.37,33.37,0,0,0-3.53,15.08,34.21,34.21,0,0,0,3.53,15.69,36.33,36.33,0,0,0,9.84,12.2,48,48,0,0,0,15.46,8.12,69.65,69.65,0,0,0,20.29,2.8,72.71,72.71,0,0,0,20.27-2.8,52.13,52.13,0,0,0,15.5-7.93q1.78-1.47,3.35-3h0a33.76,33.76,0,0,0,10.18-25,36.35,36.35,0,0,0-3.53-16.13A35.42,35.42,0,0,0,546.76,168Zm-5.6,37.19v0l0,0v0h0a24,24,0,0,1-4.3,5.75h0a33,33,0,0,1-2.91,2.56h0s0,0,0,.05A39,39,0,0,1,523.05,219H523l0,0a55,55,0,0,1-6.44,1.22h0a56.66,56.66,0,0,1-7.37.48,52.89,52.89,0,0,1-13.41-1.7h-.06a36.69,36.69,0,0,1-11-5,24.48,24.48,0,0,1-7.49-8.38h0v0l0,0h0a21.48,21.48,0,0,1-2.63-9.5h0c0-.52,0-1.05,0-1.58a23.2,23.2,0,0,1,2.68-11.12s0,0,0,0v0a26.7,26.7,0,0,1,3.55-4.78,1.72,1.72,0,0,1,.22-.33l.54-.53h0a27.5,27.5,0,0,1,3.18-2.72,36.26,36.26,0,0,1,10.83-5.21h0l0,0a53.09,53.09,0,0,1,13.61-1.7,57,57,0,0,1,13.81,1.7l.06,0h0a39,39,0,0,1,10.78,5.39l0,0,0,0a28.49,28.49,0,0,1,7.24,8.34v0l0,0a22.65,22.65,0,0,1,2.67,10.91A21.35,21.35,0,0,1,541.16,205.16Z" transform="translate(-1.76 -37.18)"/></svg>